<svg xmlns="http://www.w3.org/2000/svg" width="200" height="200" viewBox="0 0 200 200">
<g>
<path d="M 59.31 125.25 C59.62,130.06 59.68,134.00 59.44,134.00 C59.21,134.00 56.16,131.19 52.68,127.75 C30.12,105.51 25.64,70.36 41.81,42.56 C46.64,34.26 58.94,22.20 67.33,17.54 C93.21,3.15 125.99,6.34 147.65,25.35 C157.41,33.92 165.36,47.00 169.10,60.64 C172.14,71.72 171.50,90.23 167.70,100.81 C164.94,108.50 160.64,116.56 156.72,121.38 L 154.38 124.26 L 149.94 122.29 C147.50,121.20 142.35,117.78 138.50,114.67 C134.65,111.56 129.59,108.23 127.25,107.26 C122.11,105.13 121.80,102.96 126.25,100.12 L 129.50 98.03 L 126.71 98.02 C120.97,97.98 113.69,103.35 109.11,111.00 C107.20,114.18 107.01,114.28 107.00,112.11 C106.99,105.17 116.23,94.47 124.73,91.58 C130.66,89.56 142.82,89.49 145.63,91.45 C147.53,92.79 147.95,92.65 150.73,89.70 C156.58,83.52 158.95,75.20 156.51,69.36 C155.07,65.91 154.82,65.77 151.21,66.35 C146.21,67.15 141.64,65.80 129.00,59.79 C110.43,50.96 109.89,50.81 93.70,49.93 C81.71,49.28 78.06,48.72 74.46,46.98 C68.79,44.23 65.73,39.99 65.73,34.88 C65.73,30.22 67.86,27.47 73.50,24.88 L 77.50 23.04 L 73.72 23.02 C64.94,22.97 58.07,29.20 57.23,37.98 C56.34,47.17 63.13,56.28 74.96,61.79 C79.73,64.02 80.19,64.47 78.59,65.42 C77.58,66.01 74.24,68.43 71.16,70.79 C68.08,73.14 64.53,75.33 63.28,75.65 C62.03,75.96 61.00,76.64 61.00,77.16 C61.00,78.68 67.60,81.00 71.93,81.00 L 75.92 81.00 L 71.19 87.25 C62.38,98.90 58.43,111.53 59.31,125.25 Z" fill="#2F2E2D"/>
<path d="M 0.00 100.00 L 0.00 0.00 L 100.00 0.00 L 200.00 0.00 L 200.00 100.00 L 200.00 200.00 L 100.00 200.00 L 0.00 200.00 L 0.00 100.00 ZM 59.31 125.25 C58.43,111.53 62.38,98.90 71.19,87.25 L 75.92 81.00 L 71.93 81.00 C67.60,81.00 61.00,78.68 61.00,77.16 C61.00,76.64 62.03,75.96 63.28,75.65 C64.53,75.33 68.08,73.14 71.16,70.79 C74.24,68.43 77.58,66.01 78.59,65.42 C80.19,64.47 79.73,64.02 74.96,61.79 C63.13,56.28 56.34,47.17 57.23,37.98 C58.07,29.20 64.94,22.97 73.72,23.02 L 77.50 23.04 L 73.50 24.88 C67.86,27.47 65.73,30.22 65.73,34.88 C65.73,39.99 68.79,44.23 74.46,46.98 C78.06,48.72 81.71,49.28 93.70,49.93 C109.89,50.81 110.43,50.96 129.00,59.79 C141.64,65.80 146.21,67.15 151.21,66.35 C154.82,65.77 155.07,65.91 156.51,69.36 C158.95,75.20 156.58,83.52 150.73,89.70 C147.95,92.65 147.53,92.79 145.63,91.45 C142.82,89.49 130.66,89.56 124.73,91.58 C116.23,94.47 106.99,105.17 107.00,112.11 C107.01,114.28 107.20,114.18 109.11,111.00 C113.69,103.35 120.97,97.98 126.71,98.02 L 129.50 98.03 L 126.25 100.12 C121.80,102.96 122.11,105.13 127.25,107.26 C129.59,108.23 134.65,111.56 138.50,114.67 C142.35,117.78 147.50,121.20 149.94,122.29 L 154.38 124.26 L 156.72 121.38 C160.64,116.56 164.94,108.50 167.70,100.81 C171.50,90.23 172.14,71.72 169.10,60.64 C165.36,47.00 157.41,33.92 147.65,25.35 C125.99,6.34 93.21,3.15 67.33,17.54 C58.94,22.20 46.64,34.26 41.81,42.56 C25.64,70.36 30.12,105.51 52.68,127.75 C56.16,131.19 59.21,134.00 59.44,134.00 C59.68,134.00 59.62,130.06 59.31,125.25 Z" fill="#FDFDFD"/>
</g>
</svg>